:SAMPLES-PER-SECOND 24
:FULLY-SPECIFIED
:DEGREES
214
root  -0.813403 37.5213 20.2289 -179.253 13.9391 179.763
RightUpLeg  21.9584 -6.28422 -5.74104
RightLeg  6.12266 -8.0176 2.3809
RightFoot  -20.5882 0.874434 12.4934
RightToes  -1.74623e-010 0 -2.59999e-017
Spine  -6.18097 1.89148 4.7081
Spine1  18.4463 1.67607 -0.352884
HEad  -20.1911 15.501 -12.8422
LeftShoulder1  1.95531 -3.25436 -22.6331
LeftArm  7.75128 8.72266 -40.378
LeftForeArm  25.1065 -55.0174 -14.0131
LeftHand  -0.216142 4.37423 24.0808
RightShoulder  3.68404 5.99555 32.9001
RightArm  7.47946 2.88701 35.4086
RightForeArm  120.521 75.1661 134.302
RightHand  0.420427 -7.03861 -29.2283
LeftUpLeg  -26.8217 5.55883 6.15899
LeftLeg  -6.76638 31.8972 -10.1839
LeftFoot  -0.229134 1.14218 -11.6432
LeftToes  -6.27559e-011 -2.10356e-011 8.24929e-012
215
root  -0.991576 37.2583 18.5027 179.821 9.86575 179.1
RightUpLeg  24.4646 -11.1389 -9.51392
RightLeg  10.8075 -3.45737 2.08311
RightFoot  -20.8347 1.29217 17.1568
RightToes  -1.74623e-010 0 -2.59999e-017
Spine  -7.43716 3.91148 4.07067
Spine1  17.3006 3.96214 -0.671825
HEad  -16.4393 10.064 -10.0749
LeftShoulder1  2.11122 -3.44844 -24.1495
LeftArm  6.61474 15.7638 -40.6493
LeftForeArm  25.5062 -57.8113 -15.7177
LeftHand  -0.314178 3.89389 24.0298
RightShoulder  3.75634 6.06264 33.3852
RightArm  8.23978 11.0545 37.5425
RightForeArm  120.477 75.6149 132.797
RightHand  0.132237 -5.93596 -28.1545
LeftUpLeg  -24.2068 1.47962 2.8132
LeftLeg  -10.7225 40.978 -11.1784
LeftFoot  0.204311 0.569024 -5.63935
LeftToes  -6.27559e-011 -2.10356e-011 8.24929e-012
216
root  -1.30182 37.3642 16.4281 177.786 4.35721 178.45
RightUpLeg  25.6329 -21.1113 -17.2725
RightLeg  23.3719 5.66531 1.99143
RightFoot  -12.8646 0.216583 23.2072
RightToes  -1.74623e-010 0 -2.59999e-017
Spine  -7.94062 5.9424 4.28307
Spine1  16.4253 6.81269 -3.50155
HEad  -12.6827 2.1899 -5.73037
LeftShoulder1  2.17742 -3.68542 -24.0689
LeftArm  7.66995 21.59 -40.1005
LeftForeArm  26.0827 -58.0651 -15.836
LeftHand  -0.371501 3.42955 21.7008
RightShoulder  3.5994 5.93632 32.2464
RightArm  7.4971 13.7964 41.4618
RightForeArm  129.134 73.9201 139.597
RightHand  -0.285636 -4.22777 -27.8359
LeftUpLeg  -22.456 -1.11432 -1.13792
LeftLeg  -4.46464 40.1256 -6.68955
LeftFoot  3.05421 -0.293431 2.13676
LeftToes  -6.27559e-011 -2.10356e-011 8.24929e-012
217
root  -1.63494 37.4812 14.3589 175.097 -1.97516 178.897
RightUpLeg  19.2579 -19.4244 -16.4988
RightLeg  42.6206 -0.143091 -0.703864
RightFoot  7.71594 -3.09985 19.6481
RightToes  -1.74623e-010 0 -2.59999e-017
Spine  -7.35358 7.53711 4.80501
Spine1  15.4206 9.02699 -6.25708
HEad  -9.95106 -6.10041 -1.93747
LeftShoulder1  2.2119 -3.93939 -23.468
LeftArm  8.70461 25.0036 -38.2496
LeftForeArm  27.7909 -57.665 -15.3913
LeftHand  -0.437046 2.83952 19.683
RightShoulder  3.44949 5.81829 31.1139
RightArm  7.00038 15.268 43.4634
RightForeArm  135.983 71.2791 146.529
RightHand  -0.578495 -3.03717 -28.0804
LeftUpLeg  -20.8402 -1.73666 -4.06197
LeftLeg  4.43099 34.3036 -2.10954
LeftFoot  5.03518 -1.21277 8.25325
LeftToes  -6.27559e-011 -2.10356e-011 8.24929e-012
218
root  -1.76733 37.1819 12.8408 172.666 -8.44455 179.002
RightUpLeg  6.48491 -16.1901 -13.3102
RightLeg  64.5744 -0.573339 -1.90066
RightFoot  18.3109 -3.44444 13.3868
RightToes  -1.74623e-010 0 -2.59999e-017
Spine  -5.1562 8.37316 1.7095
Spine1  14.401 9.53865 -7.10796
HEad  -8.05932 -12.4923 0.217999
LeftShoulder1  2.23103 -3.97988 -23.5687
LeftArm  8.96779 25.3974 -35.2809
LeftForeArm  28.2907 -57.9726 -15.5505
LeftHand  -0.444025 2.76572 19.4165
RightShoulder  3.43588 5.8374 30.8888
RightArm  7.50813 16.2839 43.3735
RightForeArm  139.232 69.1888 150.441
RightHand  -0.759898 -2.18347 -27.141
LeftUpLeg  -20.6776 -1.31798 -7.3672
LeftLeg  14.6891 28.0113 3.02383
LeftFoot  3.60188 -1.22861 9.17436
LeftToes  -6.27559e-011 -2.10356e-011 8.24929e-012
219
root  -1.80087 37.2017 11.3139 170.032 -16.309 -179.224
RightUpLeg  -7.39764 -15.9824 -10.7146
RightLeg  81.9578 0.596918 3.04562
RightFoot  10.0019 -2.34573 12.7689
RightToes  -1.74623e-010 0 -2.59999e-017
Spine  -3.4655 7.58539 -0.39086
Spine1  13.315 8.83056 -8.24825
HEad  -7.01336 -17.447 2.23167
LeftShoulder1  2.27194 -3.97183 -24.1779
LeftArm  10.269 20.9127 -32.0853
LeftForeArm  26.2886 -57.5119 -15.4376
LeftHand  -0.354329 3.42855 20.6491
RightShoulder  3.49094 5.91552 31.1712
RightArm  7.66437 14.1242 43.0761
RightForeArm  140.611 67.6699 152.703
RightHand  -0.866526 -1.63759 -26.4776
LeftUpLeg  -18.4723 1.56662 -9.21953
LeftLeg  20.5733 17.363 4.11182
LeftFoot  1.04127 -0.943788 8.62398
LeftToes  -6.27559e-011 -2.10356e-011 8.24929e-012
220
root  -1.80078 37.6036 9.70351 165.795 -25.6142 -173.71
RightUpLeg  -21.866 -19.5819 -8.29326
RightLeg  91.546 -0.522791 13.0329
RightFoot  -0.586449 -1.72623 18.1154
RightToes  -1.74623e-010 0 -2.59999e-017
Spine  -2.33116 5.20942 -0.731999
Spine1  11.811 6.70708 -8.50958
HEad  -6.38348 -21.6649 4.89046
LeftShoulder1  2.40186 -4.18982 -25.0448
LeftArm  12.5284 12.8579 -30.0841
LeftForeArm  24.5667 -56.0358 -14.6555
LeftHand  -0.306319 3.69374 20.5625
RightShoulder  3.60596 6.03117 31.9339
RightArm  7.22437 8.84176 41.7522
RightForeArm  140.461 65.7976 154.91
RightHand  -0.953128 -1.38562 -27.2775
LeftUpLeg  -14.8249 4.8616 -7.0035
LeftLeg  23.0448 6.04275 2.21838
LeftFoot  -0.0730791 -0.959118 9.69623
LeftToes  -6.27559e-011 -2.10356e-011 8.24929e-012
